{
    "extras": [
        {
            "Subject": "Generator",
            "Text": "DEM Net Elevation API",
            "Url": "https://elevationapi.com",
            "Acknowledgement": "DEM Net Elevation API (elevationapi.com), under MIT license, free for less than 100K$ gross revenue companies."
        },
        {
            "Subject": "Digital Elevation Model",
            "Text": "SRTM_GL3 OpenTopography",
            "Url": "https://opentopography.org/",
            "Acknowledgement": "Farr, T. G., and M. Kobrick, 2000, Shuttle Radar Topography Mission produces a wealth of data. Eos Trans. AGU, 81:583-583.\r\nFarr, T. G. et al., 2007, The Shuttle Radar Topography Mission, Rev. Geophys., 45, RG2004, doi:10.1029/2005RG000183. (Also available online at http://www2.jpl.nasa.gov/srtm/SRTM_paper.pdf)\r\nKobrick, M., 2006, On the toes of giants--How SRTM was born, Photogramm. Eng. Remote Sens., 72:206-210.\r\nRosen, P. A. et al., 2000, Synthetic aperture radar interferometry, Proc. IEEE, 88:333-382.\r\nhttps://doi.org/10.5069/G9445JDF"
        },
        {
            "Subject": "Imagery",
            "Text": "MapBox Satellite",
            "Url": "https://www.mapbox.com",
            "Acknowledgement": "© MapBox - OpenStreetMap contributors"
        }
    ],
    "asset": {
        "extras": [
            {
                "Subject": "Generator",
                "Text": "DEM Net Elevation API",
                "Url": "https://elevationapi.com",
                "Acknowledgement": "DEM Net Elevation API (elevationapi.com), under MIT license, free for less than 100K$ gross revenue companies."
            },
            {
                "Subject": "Digital Elevation Model",
                "Text": "SRTM_GL3 OpenTopography",
                "Url": "https://opentopography.org/",
                "Acknowledgement": "Farr, T. G., and M. Kobrick, 2000, Shuttle Radar Topography Mission produces a wealth of data. Eos Trans. AGU, 81:583-583.\r\nFarr, T. G. et al., 2007, The Shuttle Radar Topography Mission, Rev. Geophys., 45, RG2004, doi:10.1029/2005RG000183. (Also available online at http://www2.jpl.nasa.gov/srtm/SRTM_paper.pdf)\r\nKobrick, M., 2006, On the toes of giants--How SRTM was born, Photogramm. Eng. Remote Sens., 72:206-210.\r\nRosen, P. A. et al., 2000, Synthetic aperture radar interferometry, Proc. IEEE, 88:333-382.\r\nhttps://doi.org/10.5069/G9445JDF"
            },
            {
                "Subject": "Imagery",
                "Text": "MapBox Satellite",
                "Url": "https://www.mapbox.com",
                "Acknowledgement": "© MapBox - OpenStreetMap contributors"
            }
        ],
        "copyright": "DEM Net Elevation API https://elevationapi.com",
        "generator": "DEM Net Elevation API https://elevationapi.com with SharpGLTF",
        "version": "2.0"
    },
    "accessors": [
        {
            "bufferView": 0,
            "componentType": 5126,
            "count": 1224,
            "max": [
                -8136898,
                561,
                4401770.5
            ],
            "min": [
                -8140145,
                0,
                4397951.5
            ],
            "type": "VEC3"
        },
        {
            "bufferView": 1,
            "componentType": 5126,
            "count": 1224,
            "max": [
                0.7444648742675781,
                1,
                0.5833238363265991
            ],
            "min": [
                -0.45404621958732605,
                0.6326232552528381,
                -0.4462525546550751
            ],
            "type": "VEC3"
        },
        {
            "bufferView": 2,
            "componentType": 5125,
            "count": 6930,
            "type": "SCALAR"
        },
        {
            "bufferView": 3,
            "componentType": 5126,
            "count": 1224,
            "max": [
                1,
                1
            ],
            "min": [
                0,
                0
            ],
            "type": "VEC2"
        }
    ],
    "bufferViews": [
        {
            "buffer": 0,
            "byteLength": 14688,
            "byteOffset": 27720,
            "target": 34962
        },
        {
            "buffer": 0,
            "byteLength": 14688,
            "byteOffset": 42408,
            "target": 34962
        },
        {
            "buffer": 0,
            "byteLength": 27720,
            "byteOffset": 0,
            "target": 34963
        },
        {
            "buffer": 0,
            "byteLength": 9792,
            "byteOffset": 57096,
            "target": 34962
        },
        {
            "buffer": 1,
            "byteLength": 5484952
        }
    ],
    "buffers": [
        {
            "byteLength": 66888,
            "uri": "800025d3-0006-f800-b63f-84710c7967bb.bin"
        },
        {
            "uri": "image0.jpg",
            "byteLength": 5484952
        }
    ],
    "images": [
        {
            "bufferView": 4,
            "mimeType": "image/jpeg"
        }
    ],
    "materials": [
        {
            "name": "Default",
            "doubleSided": true,
            "pbrMetallicRoughness": {
                "baseColorTexture": {
                    "index": 0
                },
                "metallicFactor": 0
            }
        }
    ],
    "meshes": [
        {
            "name": "TerrainMesh",
            "primitives": [
                {
                    "attributes": {
                        "POSITION": 0,
                        "NORMAL": 1,
                        "TEXCOORD_0": 3
                    },
                    "indices": 2,
                    "material": 0
                }
            ]
        }
    ],
    "nodes": [
        {
            "name": "TerrainNode",
            "mesh": 0
        }
    ],
    "scenes": [
        {
            "name": "TerrainScene",
            "nodes": [
                0
            ]
        }
    ],
    "textures": [
        {
            "source": 0
        }
    ]
}