{
    "asset": {
        "generator": "Khronos glTF Blender I/O v0.9.35",
        "version": "2.0"
    },
    "scene": 0,
    "scenes": [
        {
            "name": "Scene",
            "nodes": [
                0,
                1,
                2
            ]
        }
    ],
    "nodes": [
        {
            "name": "Light",
            "rotation": [
                0.16907575726509094,
                0.7558803558349609,
                -0.27217137813568115,
                0.570947527885437
            ],
            "translation": [
                4.076245307922363,
                5.903861999511719,
                -1.0054539442062378
            ]
        },
        {
            "name": "Camera",
            "rotation": [
                0.483536034822464,
                0.33687159419059753,
                -0.20870360732078552,
                0.7804827094078064
            ],
            "translation": [
                7.358891487121582,
                4.958309173583984,
                6.925790786743164
            ]
        },
        {
            "mesh": 0,
            "name": "80001805-0002-Fe00-B63F-84710C7967Bb",
            "scale": [
                0.023692425340414047,
                0.023692425340414047,
                0.023692425340414047
            ]
        }
    ],
    "materials": [
        {
            "doubleSided": true,
            "name": "Material.003",
            "pbrMetallicRoughness": {}
        }
    ],
    "meshes": [
        {
            "name": "80001805-0002-Fe00-B63F-84710C7967Bb",
            "primitives": [
                {
                    "attributes": {
                        "POSITION": 0,
                        "NORMAL": 1
                    },
                    "indices": 2,
                    "material": 0
                }
            ]
        }
    ],
    "accessors": [
        {
            "bufferView": 0,
            "componentType": 5126,
            "count": 5074,
            "max": [
                106.66417694091797,
                38.048484802246094,
                125.00000762939453
            ],
            "min": [
                -106.66417694091797,
                -5.00000524520874,
                -125.00000762939453
            ],
            "type": "VEC3"
        },
        {
            "bufferView": 1,
            "componentType": 5126,
            "count": 5074,
            "type": "VEC3"
        },
        {
            "bufferView": 2,
            "componentType": 5123,
            "count": 6912,
            "type": "SCALAR"
        }
    ],
    "bufferViews": [
        {
            "buffer": 0,
            "byteLength": 60888,
            "byteOffset": 0,
            "name": "base.bin"
        },
        {
            "buffer": 0,
            "byteLength": 60888,
            "byteOffset": 60888,
            "name": "base.bin"
        },
        {
            "buffer": 0,
            "byteLength": 13824,
            "byteOffset": 121776,
            "name": "base.bin"
        }
    ],
    "buffers": [
        {
            "byteLength": 135600,
            "uri": "base.bin"
        }
    ]
}