{
    "asset" : {
        "generator" : "Khronos glTF Blender I/O v0.9.35",
        "version" : "2.0"
    },
    "scene" : 0,
    "scenes" : [
        {
            "name" : "Scene",
            "nodes" : [
                0
            ]
        }
    ],
    "nodes" : [
        {
            "mesh" : 0,
            "name" : "TerrainNode",
            "rotation" : [
                0.7075603008270264,
                0,
                0,
                0.7066530585289001
            ],
            "scale" : [
                0.0024692751467227936,
                0.0024692751467227936,
                0.0024692751467227936
            ],
            "translation" : [
                0,
                0.33835023641586304,
                0
            ]
        }
    ],
    "materials" : [
        {
            "doubleSided" : true,
            "name" : "Default.003",
            "pbrMetallicRoughness" : {
                "baseColorTexture" : {
                    "index" : 0,
                    "texCoord" : 0
                },
                "metallicFactor" : 0,
                "roughnessFactor" : 1
            }
        }
    ],
    "meshes" : [
        {
            "name" : "TerrainMesh",
            "primitives" : [
                {
                    "attributes" : {
                        "POSITION" : 0,
                        "NORMAL" : 1,
                        "TEXCOORD_0" : 2
                    },
                    "indices" : 3,
                    "material" : 0
                }
            ]
        }
    ],
    "textures" : [
        {
            "source" : 0
        }
    ],
    "images" : [
        {
            "mimeType" : "image/png",
            "name" : "Image_0",
            "uri" : "Image_0.png"
        }
    ],
    "accessors" : [
        {
            "bufferView" : 0,
            "componentType" : 5126,
            "count" : 1441,
            "max" : [
                1577,
                1907,
                47.40336227416992
            ],
            "min" : [
                -1577,
                -1912,
                -326.5966491699219
            ],
            "type" : "VEC3"
        },
        {
            "bufferView" : 1,
            "componentType" : 5126,
            "count" : 1441,
            "type" : "VEC3"
        },
        {
            "bufferView" : 2,
            "componentType" : 5126,
            "count" : 1441,
            "type" : "VEC2"
        },
        {
            "bufferView" : 3,
            "componentType" : 5123,
            "count" : 6732,
            "type" : "SCALAR"
        }
    ],
    "bufferViews" : [
        {
            "buffer" : 0,
            "byteLength" : 17292,
            "byteOffset" : 0
        },
        {
            "buffer" : 0,
            "byteLength" : 17292,
            "byteOffset" : 17292
        },
        {
            "buffer" : 0,
            "byteLength" : 11528,
            "byteOffset" : 34584
        },
        {
            "buffer" : 0,
            "byteLength" : 13464,
            "byteOffset" : 46112
        }
    ],
    "buffers" : [
        {
            "byteLength" : 59576,
            "uri" : "tsunami_v7.bin"
        }
    ]
}
