<?xml version="1.0" encoding="UTF-8" standalone="no"?>
<!DOCTYPE svg PUBLIC "-//W3C//DTD SVG 1.1//EN" "http://www.w3.org/Graphics/SVG/1.1/DTD/svg11.dtd">
<svg width="100%" height="100%" viewBox="0 0 1034 1350" version="1.1" xmlns="http://www.w3.org/2000/svg" xmlns:xlink="http://www.w3.org/1999/xlink" xml:space="preserve" xmlns:serif="http://www.serif.com/" style="fill-rule:evenodd;clip-rule:evenodd;stroke-linejoin:round;stroke-miterlimit:2;">
    <g transform="matrix(4.16667,0,0,4.16667,0,0)">
        <path d="M173.718,104.973C175.963,98.998 177.192,92.526 177.192,85.768C177.192,55.623 152.756,31.184 122.608,31.184C94.458,31.184 71.282,52.496 68.339,79.865C47.91,83.45 31.935,101.476 31.935,122.933C31.935,143.587 45.818,160.758 65.108,165.228C64.858,167.755 64.835,169.954 64.835,172.523C64.835,214.156 98.59,247.901 140.221,247.901C181.854,247.901 215.597,214.156 215.597,172.523C215.597,143.224 198.127,117.448 173.718,104.973ZM123.038,46.059C145.342,46.059 162.946,64.141 163.418,86.435C163.567,93.393 160.752,99.97 160.752,99.97C156.583,98.774 151.537,97.936 147.195,97.499C148.58,94.224 149.502,90.34 149.502,86.563C149.502,71.454 137.259,59.206 122.152,59.206C107.91,59.206 96.176,70.065 94.879,83.959C91.337,82.191 87.124,80.81 83.116,80.059C86.036,60.635 102.799,46.059 123.038,46.059ZM139.968,142.321C156.928,142.321 170.674,156.063 170.674,173.022C170.674,189.98 156.928,203.725 139.968,203.725C123.015,203.725 109.27,189.98 109.27,173.022C109.27,156.066 123.015,142.321 139.968,142.321ZM109.749,86.034C109.749,78.941 115.5,73.191 122.595,73.191C129.687,73.191 135.437,78.941 135.437,86.034C135.437,93.13 129.687,98.879 122.595,98.879C115.5,98.879 109.749,93.13 109.749,86.034ZM123.038,126.813C121.444,126.813 120.395,126.779 118.848,126.598C118.95,125.387 119.001,124.167 119.001,122.933C119.001,122.933 119.028,118.842 118.383,115.587C125.038,113.082 132.267,111.77 139.794,111.77C144.299,111.77 148.195,112.065 152.422,112.997L152.928,113.105C145.529,121.468 135.085,126.813 123.038,126.813ZM101.58,107.654C98.621,109.441 93.104,113.608 93.104,113.608C88.339,108.266 84.774,101.354 83.381,94.039C90.887,96.05 97.607,101.327 101.58,107.654ZM93.941,132.228C96.633,133.892 102.056,136.35 102.056,136.35C98.117,143.811 90.82,149.692 82.479,151.736C85.007,144.489 88.881,137.897 93.941,132.228ZM67.887,151.281C55.968,147.483 46.749,136.087 46.749,122.909C46.749,109.279 55.207,97.988 68.547,94.413C69.154,98.165 70.336,101.964 71.67,105.417C63.921,107.003 58.392,114.458 58.392,122.672C58.392,131.014 64.403,137.954 72.332,139.395C70.559,143.047 69.05,147.285 67.887,151.281ZM139.794,233.294C106.236,233.294 79.028,206.093 79.028,172.532C79.028,170.315 79.107,168.447 79.321,166.297C85.767,165.732 91.81,163.76 97.14,160.694C96.114,164.456 95.491,168.683 95.491,172.771C95.491,197.531 115.562,217.6 140.315,217.6C165.072,217.6 185.144,197.531 185.144,172.771C185.144,153.021 172.107,136.167 154.371,130.197C159.064,126.819 163.196,122.702 166.615,117.993C186.722,127.9 200.554,148.601 200.554,172.532C200.554,206.093 173.355,233.294 139.794,233.294Z" style="fill:rgb(240,84,34);fill-rule:nonzero;"/>
        <path d="M157.599,172.688C157.599,182.549 149.606,190.542 139.746,190.542C129.886,190.542 121.894,182.549 121.894,172.688C121.894,162.829 129.886,154.837 139.746,154.837C149.606,154.837 157.599,162.826 157.599,172.688Z" style="fill:rgb(240,84,34);fill-rule:nonzero;"/>
        <g>
            <path d="M47.165,293.61C37.668,293.61 31.935,287.349 31.935,277.692C31.935,268.12 38.026,261.677 46.941,261.677C50.487,261.677 53.35,262.44 55.622,263.693L54.528,270.58C52.621,269.148 50.256,268.076 47.524,268.076C42.802,268.076 39.71,271.61 39.71,277.646C39.71,283.816 43.209,287.217 47.937,287.217C50.487,287.217 52.708,286.366 55.072,285.067L56.073,291.332C53.526,292.717 50.618,293.61 47.165,293.61Z" style="fill:white;fill-rule:nonzero;"/>
            <rect x="63.024" y="262.217" width="7.775" height="30.858" style="fill:white;fill-rule:nonzero;"/>
            <path d="M93.294,293.657C83.338,293.657 77.836,287.216 77.836,277.692C77.836,268.12 83.79,261.636 93.471,261.636C97.336,261.636 100.567,262.53 103.069,263.916L102.021,270.58C99.655,269.103 96.884,267.941 93.656,267.941C88.252,267.941 85.611,271.878 85.611,277.646C85.611,283.461 88.336,287.528 93.747,287.528C95.477,287.528 96.701,287.216 97.978,286.546L97.978,281.047L92.522,281.047L91.612,275.364L104.747,275.364L104.747,290.391C101.478,292.492 97.613,293.657 93.294,293.657Z" style="fill:white;fill-rule:nonzero;"/>
            <rect x="112.424" y="262.217" width="7.775" height="30.858" style="fill:white;fill-rule:nonzero;"/>
            <path d="M139.379,293.075L128.375,293.075L128.375,262.216L139.15,262.216C150.058,262.216 155.79,268.433 155.79,277.6C155.79,286.768 149.973,293.075 139.379,293.075ZM138.968,268.166L136.151,268.166L136.151,287.127L138.968,287.127C144.514,287.127 147.967,284.265 147.967,277.646C147.967,271.163 144.287,268.166 138.968,268.166Z" style="fill:white;fill-rule:nonzero;"/>
            <path d="M162.688,293.075L162.688,262.216L182.234,262.216L182.234,268.346L170.327,268.346L170.327,273.978L179.419,273.978L180.421,280.286L170.327,280.286L170.327,286.95L182.647,286.95L182.647,293.075L162.688,293.075Z" style="fill:white;fill-rule:nonzero;"/>
            <path d="M208.871,293.075L196.503,274.604L196.503,293.075L189.279,293.075L189.279,262.216L196.822,262.216L208.371,279.479L208.371,262.216L215.598,262.216L215.598,293.075L208.871,293.075Z" style="fill:white;fill-rule:nonzero;"/>
        </g>
    </g>
</svg>
