<?xml version="1.0" encoding="UTF-8" standalone="no"?>
<!DOCTYPE svg PUBLIC "-//W3C//DTD SVG 1.1//EN" "http://www.w3.org/Graphics/SVG/1.1/DTD/svg11.dtd">
<svg width="100%" height="100%" viewBox="0 0 524 76" version="1.1" xmlns="http://www.w3.org/2000/svg" xmlns:xlink="http://www.w3.org/1999/xlink" xml:space="preserve" xmlns:serif="http://www.serif.com/" style="fill-rule:evenodd;clip-rule:evenodd;stroke-linejoin:round;stroke-miterlimit:2;">
    <g transform="matrix(1,0,0,1,-2871.36,-491.763)">
        <g transform="matrix(1,0,0,1,2160,0)">
            <text x="1209.02px" y="517.244px" style="font-family:'ArialMT', 'Arial', sans-serif;font-size:35px;fill:white;">®</text>
        </g>
        <g transform="matrix(1,0,0,1,2160,0)">
            <g transform="matrix(1,0,0,1,746.156,538.103)">
                <path d="M0,-8.737L-2.987,-8.737L-2.987,-13.422L0,-13.422L0,-17.435C0,-20.326 0.775,-22.455 2.325,-23.822C3.838,-25.091 5.738,-25.726 8.026,-25.726L11.854,-25.726L11.854,-19.987L8.471,-19.987C6.687,-20.046 5.834,-19.202 5.912,-17.455L5.912,-13.422L11.854,-13.422L11.854,-8.737L5.912,-8.737L5.912,16.989L0,16.989L0,-8.737Z" style="fill:white;fill-rule:nonzero;"/>
            </g>
        </g>
        <g transform="matrix(1,0,0,1,2160,0)">
            <g transform="matrix(1,0,0,1,778.793,539.828)">
                <path d="M0,0.088C0,-2.088 -0.095,-3.675 -0.285,-4.675C-0.475,-5.635 -0.863,-6.477 -1.451,-7.203C-1.887,-7.889 -2.531,-8.427 -3.384,-8.819C-4.2,-9.23 -5.148,-9.436 -6.229,-9.436C-7.234,-9.436 -8.163,-9.23 -9.016,-8.819C-9.831,-8.427 -10.495,-7.889 -11.006,-7.203C-11.519,-6.477 -11.888,-5.635 -12.115,-4.675C-12.343,-3.675 -12.457,-2.106 -12.457,0.029C-12.457,2.146 -12.343,3.694 -12.115,4.674C-11.888,5.673 -11.519,6.555 -11.006,7.319C-10.495,7.907 -9.831,8.427 -9.016,8.877C-8.163,9.309 -7.234,9.525 -6.229,9.525C-5.148,9.525 -4.2,9.309 -3.384,8.877C-2.531,8.427 -1.887,7.907 -1.451,7.319C-0.863,6.555 -0.475,5.673 -0.285,4.674C-0.095,3.694 0,2.165 0,0.088M-18.369,0.029C-18.369,-3.18 -18.114,-5.644 -17.603,-7.367C-17.073,-9.049 -16.26,-10.468 -15.163,-11.622C-14.349,-12.633 -13.214,-13.536 -11.757,-14.333C-10.319,-15.091 -8.475,-15.488 -6.224,-15.527C-3.896,-15.488 -2.014,-15.088 -0.576,-14.326C0.843,-13.525 1.94,-12.617 2.716,-11.601C3.885,-10.449 4.714,-9.033 5.205,-7.353C5.677,-5.635 5.912,-3.174 5.912,0.029C5.912,3.233 5.676,5.674 5.203,7.354C4.711,9.033 3.879,10.488 2.707,11.719C2.329,12.168 1.865,12.608 1.317,13.037C0.825,13.526 0.191,13.945 -0.584,14.297C-2.021,15.137 -3.903,15.575 -6.229,15.615C-8.479,15.575 -10.323,15.137 -11.76,14.297C-13.216,13.535 -14.351,12.676 -15.164,11.719C-16.261,10.488 -17.074,9.033 -17.604,7.354C-18.114,5.674 -18.369,3.233 -18.369,0.029" style="fill:white;fill-rule:nonzero;"/>
            </g>
        </g>
        <g transform="matrix(1,0,0,1,2160,0)">
            <g transform="matrix(1,0,0,1,791.889,554.711)">
                <path d="M0,-30.029L5.912,-30.029L5.912,-26.806L6.036,-26.806C7.985,-29.209 10.54,-30.41 13.701,-30.41C16.066,-30.371 18.129,-29.592 19.889,-28.075L15.571,-22.792C14.321,-23.809 13.023,-24.319 11.679,-24.319C10.164,-24.319 8.867,-23.81 7.787,-22.794C6.575,-21.796 5.95,-20.182 5.912,-17.954L5.912,0.381L0,0.381L0,-30.029Z" style="fill:white;fill-rule:nonzero;"/>
            </g>
        </g>
        <g transform="matrix(1,0,0,1,2160,0)">
            <g transform="matrix(1,0,0,1,814.998,554.672)">
                <path d="M0,-29.99L5.924,-29.99L5.924,-26.767L6.037,-26.767C8.049,-29.17 10.696,-30.371 13.978,-30.371C16.087,-30.332 17.786,-29.97 19.076,-29.287C20.345,-28.525 21.507,-27.558 22.562,-26.386C24.945,-29.082 28.139,-30.41 32.144,-30.371C34.663,-30.371 36.968,-29.482 39.058,-27.705C41.128,-25.908 42.203,-23.271 42.281,-19.795L42.281,0.42L36.363,0.42L36.363,-17.709C36.363,-19.841 35.796,-21.464 34.664,-22.579C33.531,-23.713 32.07,-24.28 30.282,-24.28C28.493,-24.28 27.023,-23.713 25.87,-22.579C24.697,-21.464 24.111,-19.841 24.111,-17.709L24.111,0.42L18.199,0.42L18.199,-17.709C18.199,-19.841 17.632,-21.464 16.5,-22.579C15.347,-23.713 13.877,-24.28 12.088,-24.28C10.3,-24.28 8.839,-23.713 7.707,-22.579C6.514,-21.464 5.918,-19.841 5.918,-17.709L5.918,0.42L0,0.42L0,-29.99Z" style="fill:white;fill-rule:nonzero;"/>
            </g>
        </g>
        <g transform="matrix(1,0,0,1,2160,0)">
            <g transform="matrix(1,0,0,1,892.477,537.429)">
                <path d="M0,-7.037C-1.325,-7.037 -2.375,-6.753 -3.151,-6.184C-3.965,-5.616 -4.561,-4.871 -4.939,-3.95C-5.299,-3.029 -5.535,-2.029 -5.649,-0.952C-5.762,0.126 -5.819,1.253 -5.819,2.429C-5.819,3.507 -5.762,4.604 -5.649,5.721C-5.535,6.858 -5.299,7.887 -4.939,8.808C-4.561,9.729 -3.965,10.474 -3.151,11.041C-2.375,11.63 -1.325,11.924 0,11.924C1.4,11.924 2.507,11.65 3.321,11.101C4.135,10.532 4.712,9.808 5.053,8.925C5.431,8.004 5.687,6.966 5.819,5.809C5.856,4.712 5.876,3.585 5.876,2.429C5.876,1.214 5.856,0.028 5.819,-1.128C5.687,-2.206 5.431,-3.206 5.053,-4.127C4.712,-5.048 4.135,-5.773 3.321,-6.303C2.507,-6.792 1.4,-7.037 0,-7.037M-11.731,-25.052L-5.819,-25.052L-5.819,-9.524C-4.742,-10.599 -3.56,-11.477 -2.274,-12.161C-1.083,-12.806 0.269,-13.128 1.782,-13.128C5.394,-13.03 8.031,-11.702 9.695,-9.143C10.506,-8.186 11.062,-6.927 11.364,-5.364C11.647,-3.821 11.788,-1.224 11.788,2.429C11.788,6.023 11.646,8.601 11.363,10.163C11.061,11.804 10.503,13.103 9.69,14.06C8.877,15.232 7.809,16.169 6.486,16.872C5.182,17.595 3.613,17.975 1.78,18.015C-1.32,17.937 -3.854,16.762 -5.819,14.488L-5.819,17.663L-11.731,17.663L-11.731,-25.052Z" style="fill:white;fill-rule:nonzero;"/>
            </g>
        </g>
        <g transform="matrix(1,0,0,1,2160,0)">
            <g transform="matrix(1,0,0,1,907.641,567.397)">
                <path d="M0,-42.715L6.266,-42.715L13.241,-21.412L13.354,-21.412L20.301,-42.715L26.596,-42.715L13.922,-6.006C13.109,-3.721 11.984,-2.139 10.548,-1.26C9.092,-0.421 7.448,0 5.614,0L3.657,0L3.657,-5.739L5.387,-5.739C6.162,-5.739 6.88,-5.955 7.542,-6.386C8.204,-6.836 8.667,-7.501 8.931,-8.381L10.548,-13.487L0,-42.715Z" style="fill:white;fill-rule:nonzero;"/>
            </g>
        </g>
        <g transform="matrix(1,0,0,1,2160,0)">
            <g transform="matrix(1,0,0,1,952.904,554.711)">
                <path d="M0,-30.029L5.913,-30.029L5.913,-26.806L6.026,-26.806C7.973,-29.209 10.524,-30.41 13.681,-30.41C16.119,-30.41 18.35,-29.521 20.372,-27.744C22.376,-25.947 23.425,-23.31 23.52,-19.834L23.52,0.381L17.607,0.381L17.607,-17.748C17.607,-19.88 17.059,-21.503 15.96,-22.618C14.882,-23.752 13.491,-24.319 11.788,-24.319C10.085,-24.319 8.685,-23.752 7.587,-22.618C6.47,-21.503 5.912,-19.88 5.912,-17.748L5.912,0.381L0,0.381L0,-30.029Z" style="fill:white;fill-rule:nonzero;"/>
            </g>
        </g>
        <g transform="matrix(1,0,0,1,2160,0)">
            <g transform="matrix(1,0,0,1,985.131,555.444)">
                <path d="M0,-30.762L5.912,-30.762L5.912,-12.633C5.912,-10.58 6.47,-8.976 7.587,-7.823C8.685,-6.668 10.085,-6.091 11.788,-6.091C13.491,-6.091 14.882,-6.668 15.96,-7.823C17.059,-8.976 17.607,-10.58 17.607,-12.633L17.607,-30.762L23.52,-30.762L23.52,-0.352L17.606,-0.352L17.606,-3.604L17.493,-3.604C15.546,-1.201 13.004,0 9.866,0C7.428,-0.04 5.226,-0.956 3.26,-2.749C1.124,-4.503 0.037,-7.096 0,-10.528L0,-30.762Z" style="fill:white;fill-rule:nonzero;"/>
            </g>
        </g>
        <g transform="matrix(1,0,0,1,2160,0)">
            <g transform="matrix(1,0,0,1,1017.12,554.672)">
                <path d="M0,-29.99L5.924,-29.99L5.924,-26.767L6.037,-26.767C8.049,-29.17 10.695,-30.371 13.978,-30.371C16.087,-30.332 17.786,-29.97 19.075,-29.287C20.345,-28.525 21.507,-27.558 22.562,-26.386C24.945,-29.082 28.139,-30.41 32.144,-30.371C34.663,-30.371 36.968,-29.482 39.058,-27.705C41.128,-25.908 42.202,-23.271 42.281,-19.795L42.281,0.42L36.363,0.42L36.363,-17.709C36.363,-19.841 35.796,-21.464 34.664,-22.579C33.53,-23.713 32.07,-24.28 30.282,-24.28C28.493,-24.28 27.022,-23.713 25.87,-22.579C24.697,-21.464 24.111,-19.841 24.111,-17.709L24.111,0.42L18.199,0.42L18.199,-17.709C18.199,-19.841 17.632,-21.464 16.5,-22.579C15.347,-23.713 13.877,-24.28 12.088,-24.28C10.3,-24.28 8.839,-23.713 7.706,-22.579C6.514,-21.464 5.918,-19.841 5.918,-17.709L5.918,0.42L0,0.42L0,-29.99Z" style="fill:white;fill-rule:nonzero;"/>
            </g>
        </g>
        <g transform="matrix(1,0,0,1,2160,0)">
            <g transform="matrix(1,0,0,1,1080.21,537.429)">
                <path d="M0,-7.037C-1.325,-7.037 -2.376,-6.753 -3.151,-6.184C-3.965,-5.616 -4.562,-4.871 -4.939,-3.95C-5.3,-3.029 -5.535,-2.029 -5.649,-0.952C-5.763,0.126 -5.819,1.253 -5.819,2.429C-5.819,3.507 -5.763,4.604 -5.649,5.721C-5.535,6.858 -5.3,7.887 -4.939,8.808C-4.562,9.729 -3.965,10.474 -3.151,11.041C-2.376,11.63 -1.325,11.924 0,11.924C1.4,11.924 2.507,11.65 3.32,11.101C4.135,10.532 4.712,9.808 5.053,8.925C5.431,8.004 5.687,6.966 5.818,5.809C5.856,4.712 5.876,3.585 5.876,2.429C5.876,1.214 5.856,0.028 5.818,-1.128C5.687,-2.206 5.431,-3.206 5.053,-4.127C4.712,-5.048 4.135,-5.773 3.32,-6.303C2.507,-6.792 1.4,-7.037 0,-7.037M-11.731,-25.052L-5.819,-25.052L-5.819,-9.524C-4.742,-10.599 -3.56,-11.477 -2.274,-12.161C-1.083,-12.806 0.269,-13.128 1.782,-13.128C5.394,-13.03 8.03,-11.702 9.694,-9.143C10.506,-8.186 11.062,-6.927 11.363,-5.364C11.646,-3.821 11.788,-1.224 11.788,2.429C11.788,6.023 11.646,8.601 11.362,10.163C11.061,11.804 10.503,13.103 9.69,14.06C8.877,15.232 7.809,16.169 6.485,16.872C5.182,17.595 3.613,17.975 1.779,18.015C-1.32,17.937 -3.854,16.762 -5.819,14.488L-5.819,17.663L-11.731,17.663L-11.731,-25.052Z" style="fill:white;fill-rule:nonzero;"/>
            </g>
        </g>
        <g transform="matrix(1,0,0,1,2160,0)">
            <g transform="matrix(1,0,0,1,1116.53,542.618)">
                <path d="M0,-5.453C-0.076,-7.828 -0.692,-9.624 -1.849,-10.841C-2.986,-11.999 -4.446,-12.578 -6.229,-12.578C-8.011,-12.578 -9.471,-11.999 -10.608,-10.841C-11.728,-9.624 -12.344,-7.828 -12.457,-5.453L0,-5.453ZM-12.457,-0.42C-12.457,2.024 -11.775,3.88 -10.412,5.151C-9.145,6.441 -7.479,7.086 -5.415,7.086C-3.011,7.086 -0.862,6.099 1.03,4.124L5.318,7.905C2.312,11.225 -1.226,12.864 -5.291,12.825C-6.843,12.825 -8.355,12.591 -9.831,12.122C-10.568,11.868 -11.287,11.526 -11.986,11.097C-12.725,10.726 -13.415,10.267 -14.058,9.72C-15.306,8.587 -16.317,7.005 -17.093,4.974C-17.944,3.021 -18.369,0.482 -18.369,-2.643C-18.369,-5.651 -18.001,-8.151 -17.263,-10.143C-16.526,-12.175 -15.58,-13.776 -14.427,-14.948C-13.254,-16.14 -11.94,-16.999 -10.483,-17.526C-9.047,-18.054 -7.628,-18.317 -6.229,-18.317C-2.862,-18.278 -0.017,-17.136 2.31,-14.889C4.674,-12.603 5.874,-9.458 5.912,-5.453L5.912,-0.42L-12.457,-0.42Z" style="fill:white;fill-rule:nonzero;"/>
            </g>
        </g>
        <g transform="matrix(1,0,0,1,2160,0)">
            <g transform="matrix(1,0,0,1,1129.62,554.711)">
                <path d="M0,-30.029L5.912,-30.029L5.912,-26.806L6.036,-26.806C7.985,-29.209 10.54,-30.41 13.7,-30.41C16.066,-30.371 18.129,-29.592 19.89,-28.075L15.571,-22.792C14.321,-23.809 13.023,-24.319 11.679,-24.319C10.164,-24.319 8.866,-23.81 7.787,-22.794C6.575,-21.796 5.95,-20.182 5.912,-17.954L5.912,0.381L0,0.381L0,-30.029Z" style="fill:white;fill-rule:nonzero;"/>
            </g>
        </g>
        <g transform="matrix(1,0,0,1,2160,0)">
            <g transform="matrix(1,0,0,1,1153.83,533.941)">
                <path d="M0,11.863C2.409,14.464 5.52,15.763 9.333,15.763C11.04,15.763 12.435,15.422 13.516,14.738C14.597,14.054 15.138,13.097 15.138,11.866C15.138,10.772 14.815,10.01 14.171,9.581C13.507,9.132 12.626,8.887 11.526,8.848L6.295,8.38C3.812,8.145 1.793,7.286 0.239,5.801C-1.354,4.355 -2.169,2.334 -2.206,-0.264C-2.169,-3.389 -1.099,-5.733 1.003,-7.296C3.048,-8.859 5.642,-9.64 8.784,-9.64C10.147,-9.64 11.368,-9.552 12.447,-9.376C13.526,-9.182 14.54,-8.908 15.486,-8.557C17.304,-7.795 18.932,-6.771 20.371,-5.483L16.702,-1.061C15.564,-1.909 14.36,-2.609 13.091,-3.161C11.839,-3.654 10.398,-3.901 8.769,-3.901C6.91,-3.901 5.611,-3.558 4.872,-2.874C4.095,-2.189 3.706,-1.309 3.706,-0.234C3.667,0.451 3.961,1.048 4.588,1.555C5.156,2.123 6.161,2.484 7.602,2.64L12.491,3.022C15.563,3.257 17.78,4.215 19.146,5.897C20.415,7.54 21.05,9.623 21.05,12.145C21.012,15.097 19.849,17.376 17.559,18.979C15.287,20.623 12.382,21.463 8.844,21.503C4.037,21.503 -0.287,19.687 -4.129,16.056L0,11.863Z" style="fill:white;fill-rule:nonzero;"/>
            </g>
        </g>
        <g transform="matrix(1,0,0,1,2160,0)">
            <g transform="matrix(1,0,0,1,711.359,542.329)">
                <path d="M0,-4.464C0.88,-4.464 1.641,-4.695 2.286,-5.157C2.951,-5.555 3.477,-6.138 3.863,-6.91C4.7,-8.498 5.119,-10.395 5.119,-12.6L5.119,-22.291C5.161,-24.659 5.821,-26.501 7.099,-27.818C8.312,-29.11 9.791,-29.758 11.537,-29.758L17.094,-29.758L17.094,-25.332L13.884,-25.332C12.835,-25.288 12.086,-24.727 11.637,-23.646C11.208,-22.523 10.995,-21.21 10.995,-19.71L10.995,-10.978C10.995,-9.479 10.785,-8.234 10.367,-7.241C9.971,-6.16 9.453,-5.279 8.814,-4.596C7.514,-3.251 6.479,-2.489 5.708,-2.313L5.708,-2.181C6.06,-2.114 6.534,-1.928 7.129,-1.619C7.724,-1.265 8.286,-0.747 8.814,-0.064C9.453,0.62 9.971,1.501 10.367,2.582C10.785,3.663 10.995,4.997 10.995,6.585L10.995,15.25C10.995,16.682 11.208,17.94 11.637,19.019C12.086,20.211 12.835,20.827 13.884,20.872L17.094,20.872L17.094,25.294L11.537,25.294C9.791,25.25 8.312,24.567 7.099,23.247C5.821,21.948 5.161,20.132 5.119,17.798L5.119,8.256C5.119,5.901 4.7,3.965 3.863,2.445C3.004,0.861 1.717,0.047 0,0.003L0,-4.464Z" style="fill:white;fill-rule:nonzero;"/>
            </g>
        </g>
        <g transform="matrix(1,0,0,1,2160,0)">
            <g transform="matrix(1,0,0,1,1208.64,537.865)">
                <path d="M0,4.464C-0.88,4.464 -1.642,4.695 -2.285,5.158C-2.95,5.555 -3.478,6.139 -3.863,6.911C-4.7,8.498 -5.118,10.395 -5.118,12.601L-5.118,22.291C-5.161,24.659 -5.821,26.502 -7.099,27.818C-8.312,29.111 -9.791,29.758 -11.537,29.758L-17.094,29.758L-17.094,25.333L-13.884,25.333C-12.835,25.289 -12.086,24.727 -11.637,23.647C-11.209,22.523 -10.995,21.21 -10.995,19.711L-10.995,10.979C-10.995,9.479 -10.785,8.235 -10.367,7.241C-9.971,6.16 -9.452,5.279 -8.814,4.597C-7.514,3.251 -6.479,2.489 -5.708,2.314L-5.708,2.182C-6.06,2.115 -6.534,1.928 -7.129,1.619C-7.724,1.266 -8.285,0.748 -8.814,0.064C-9.452,-0.619 -9.971,-1.501 -10.367,-2.582C-10.785,-3.662 -10.995,-4.997 -10.995,-6.584L-10.995,-15.249C-10.995,-16.682 -11.209,-17.939 -11.637,-19.019C-12.086,-20.21 -12.835,-20.827 -13.884,-20.871L-17.094,-20.871L-17.094,-25.294L-11.537,-25.294C-9.791,-25.25 -8.312,-24.566 -7.099,-23.246C-5.821,-21.948 -5.161,-20.132 -5.118,-17.798L-5.118,-8.256C-5.118,-5.901 -4.7,-3.964 -3.863,-2.445C-3.004,-0.86 -1.717,-0.047 0,-0.003L0,4.464Z" style="fill:white;fill-rule:nonzero;"/>
            </g>
        </g>
    </g>
</svg>
